<?xml version="1.0" encoding="UTF-8" standalone="no"?>
<!-- Created with Inkscape (http://www.inkscape.org/) -->

<svg
   version="1.1"
   id="svg1"
   width="512"
   height="512"
   viewBox="0 0 512 512"
   xml:space="preserve"
   xmlns:xlink="http://www.w3.org/1999/xlink"
   xmlns="http://www.w3.org/2000/svg"
   xmlns:svg="http://www.w3.org/2000/svg"><defs
     id="defs1"><linearGradient
       id="linearGradient9"><stop
         style="stop-color:#2c5fa0;stop-opacity:1;"
         offset="0"
         id="stop9" /><stop
         style="stop-color:#06020f;stop-opacity:0.95312035;"
         offset="1"
         id="stop10" /></linearGradient><linearGradient
       xlink:href="#linearGradient9"
       id="linearGradient10"
       x1="218.26295"
       y1="11.903161"
       x2="295.90756"
       y2="502.13199"
       gradientUnits="userSpaceOnUse"
       gradientTransform="matrix(3.8811073,0,0,3.8811073,-25.686445,-20.447233)" /></defs><g
     id="g9"
     transform="matrix(0.25626002,0,0,0.25626002,6.6307966,5.2783266)"><path
       id="rect162"
       style="opacity:1;fill:url(#linearGradient10);stroke-width:3.89842"
       d="m 1571.7758,7.1251202 c -37.5901,-0.2260667 -75.6129,0.9854372 -113.0676,0.9854372 -332.3404,0 -663.01014,1.0081797 -995.19318,1.0081797 -158.38575,0 -310.22899,-21.8215131 -399.77681,112.4384029 C -5.707026,226.56636 10.387199,359.62137 10.84059,499.74526 l -0.57303,794.36864 -0.146395,305.6221 6.058317,76.9475 C 27.935546,1825.9989 141.35973,1947.0344 296.8548,1947.0344 H 406.01851 1652.4452 c 155.4951,0 280.6829,-120.5734 280.6829,-270.3509 v -76.9475 h -0.47 V 1315.2478 494.13586 c 0,-126.0782 21.9123,-269.12137 -61.3776,-374.32977 C 1793.4159,21.450705 1684.546,7.8033134 1571.7758,7.1251202 Z" /><text
       xml:space="preserve"
       style="font-style:normal;font-variant:normal;font-weight:normal;font-stretch:normal;font-size:693.701px;font-family:'Source Code Pro';-inkscape-font-specification:'Source Code Pro';writing-mode:lr-tb;direction:ltr;fill:#ffd42a;fill-opacity:1;stroke-width:57.8083"
       x="149.10924"
       y="705.35852"
       id="text8"><tspan
         id="tspan8"
         x="149.10924"
         y="705.35852"
         style="font-style:normal;font-variant:normal;font-weight:normal;font-stretch:normal;font-family:'Source Code Pro';-inkscape-font-specification:'Source Code Pro';fill:#ffd42a;stroke-width:57.8083">$_</tspan></text><path
       d="m 1710.2741,631.84042 12.0754,3.01694 -9.0585,9.05842 z m -486.0253,15.09234 h 6.0339 l 6.0415,9.05843 -9.0585,12.0754 -12.0754,-9.05842 v -3.01698 z m 362.2543,48.30158 h 6.0339 v 6.03392 z m 96.6032,30.1847 9.0509,12.0754 v 3.02455 l -9.0509,9.05086 h -3.0245 l -9.0509,-9.05086 v -3.02455 z m -316.947,5.08638 c 46.2266,1.57476 91.5025,22.53565 120.7237,61.33213 49.8437,-24.9783 103.0031,-38.95824 149.3771,2.90322 16.561,14.94937 23.9418,38.46461 41.2292,52.05384 24.0838,18.93173 60.3112,10.72226 73.7259,45.07239 29.3657,75.19494 17.3074,208.863 -71.1334,225.9987 15.4657,62.7904 -5.3887,128.7913 -63.4243,162.2712 -21.8377,12.5979 -48.862,11.8401 -69.8144,24.219 -19.9818,11.8057 -27.175,39.8891 -45.55,54.8055 -19.2696,15.6431 -42.8164,14.5909 -62.8709,26.6902 -19.5123,11.7724 -27.0937,40.5636 -43.3289,56.6324 -42.163,41.7302 -99.2326,40.0606 -149.7107,16.5022 -41.4814,65.0084 -126.0499,90.8571 -196.193,56.6703 -26.2025,-12.7708 -43.0388,-39.8547 -68.56369,-51.5157 -27.11675,-12.3881 -57.24016,-7.8623 -85.42228,-23.2639 -37.32266,50.9598 -93.6208,78.2643 -156.98015,65.7439 -21.8993,-4.3278 -43.27287,-21.0671 -65.21324,-21.9374 -21.69422,-0.8606 -43.0898,17.7406 -64.59164,21.7782 -60.96334,11.4472 -117.08117,-26.162 -135.84632,-83.7015 -56.11786,38.3401 -126.97579,21.2394 -209.99671,-21.3158 -122.45844,-62.7702 -93.99898,-200.5697 -84.91152,-248.2056 9.08749,-26.2674 35.75784,-84.3786 74.19086,-85.7578 57.32077,-9.7247 104.97087,44.0258 118.07268,68.4941 44.24024,-11.0639 80.68143,1.9457 99.62014,45.2847 30.8361,1.2954 51.85614,10.088 69.43546,36.2261 38.05394,-30.0975 71.27778,-35.2189 117.72943,-24.1508 19.95689,-71.5248 68.19905,-52.5345 117.75221,-80.3889 61.00957,-34.2942 73.28206,-85.7197 156.95741,-64.5158 36.93483,-90.67588 103.70976,-63.99346 165.64446,-113.29501 22.8932,-18.22343 24.8223,-48.1236 45.1179,-68.23775 18.1025,-17.94092 44.2838,-16.71581 62.5753,-32.16316 23.6452,-19.96868 32.9563,-52.12653 58.9215,-71.99757 29.996,-22.95582 66.5239,-33.45619 102.4779,-32.23139 z m 108.6483,3.97208 9.0584,9.05843 v 3.01698 l -9.0584,9.05842 h -3.017 l -9.0584,-9.05842 v -3.01698 z m -392.4391,3.01694 h 3.017 l 9.0584,9.05847 -12.0754,12.0754 -12.0754,-12.0754 z m -99.62013,57.36005 3.01698,3.01694 v 3.01698 l -3.01698,3.02451 h -3.02454 l -3.01694,-3.02451 v -3.01698 z m 144.89723,9.05843 3.0169,12.0754 -12.0754,-9.05843 z m -226.40805,18.10932 v 3.01694 h -12.0754 z m -60.37699,69.43542 h 6.04149 v 6.03391 h -6.04149 z m 120.75398,36.22621 6.03392,9.05086 h -15.09238 z m 105.65406,0 9.0584,9.05086 v 3.02455 l -9.0584,9.05086 -9.0509,-15.09235 z m -274.70962,72.44483 9.05843,12.0754 -9.05843,9.0584 H 789.542 l -9.05842,-9.0584 v -3.017 z m -458.85001,24.1508 3.01698,6.0415 h -6.04149 z m 244.51737,3.0245 h 15.09235 l -6.03392,9.0509 h -3.01694 z m -126.78789,36.2186 9.05843,9.0585 v 6.0414 l -9.05843,9.0509 h -3.01698 l -9.05843,-15.0923 z m 153.95565,54.3431 3.0245,6.0339 h -6.04148 z m 1101.863,99.6201 9.0509,3.017 -9.0509,9.0584 z m -51.3261,163.0141 h 6.0415 v 6.0339 h -6.0415 z m -159.9896,93.5787 v 3.0245 h -12.0754 z m 156.9726,30.1923 v 15.0923 l -9.0508,-6.0339 z m -1325.24652,21.1262 12.07541,9.0585 v 3.0169 l -12.07541,12.0754 -12.0754,-12.0754 v -3.0169 z m 1388.64052,15.1 9.0584,9.0508 v 3.0246 l -9.0584,9.0508 h -3.017 l -9.0584,-9.0508 v -3.0246 z m -1005.25227,18.1093 v 9.0584 l -9.05847,-3.0169 z m 715.45027,6.0415 v 6.0339 h -6.0339 z m -476.96686,9.0508 6.03391,9.0584 -6.03391,12.0755 h -3.01694 l -9.05847,-9.0585 v -3.017 z m -492.06681,6.0415 9.05846,9.0585 v 3.0169 l -9.05846,9.0584 h -3.01694 l -6.03392,-12.0753 z m 667.15627,60.377 9.0585,9.0509 -12.0754,9.0584 -6.0415,-9.0584 z m 166.0311,6.0339 h 6.0415 l 3.0169,9.0584 h -12.0754 z m 220.3741,3.017 12.0754,9.0584 v 3.017 l -12.0754,9.0584 -12.0754,-9.0584 v -3.017 z m -763.75189,18.1168 9.05085,9.0585 -9.05085,12.0754 -12.07541,-9.0584 v -3.017 z m -178.11403,24.1509 9.05846,12.0754 -12.0754,12.0753 -9.05847,-9.0584 v -3.0169 -3.017 z m 304.90192,3.0169 h 6.03392 v 6.0415 h -6.03392 z m 163.0141,0 h 6.0339 l 3.0245,3.017 v 6.0415 l -3.0245,3.0169 h -6.0339 l -3.017,-3.0169 v -6.0415 z m 621.8716,27.1677 h 6.0339 l 3.017,3.017 v 6.0415 l -3.017,3.017 h -6.0339 l -3.0245,-3.017 v -6.0415 z m -1255.81867,3.017 6.04152,9.0585 H 394.0784 Z m 537.34388,21.1339 12.07537,12.0754 -12.07537,12.0753 -12.07541,-12.0753 z m 199.24029,7.042 c 2.3343,0 0.4816,1.5048 -1.0082,1.0082 z m 199.2403,5.0334 9.0584,9.0584 v 3.0169 3.017 l -9.0584,9.0584 -9.0585,-9.0584 v -3.017 -3.0169 z"
       style="fill:#ffffff;fill-opacity:1;stroke-width:3.89842"
       id="path1" /></g></svg>
